<svg width="120" height="120" viewBox="0 0 120 120" fill="none" xmlns="http://www.w3.org/2000/svg">
  <defs>
    <linearGradient id="fpA" x1="8" y1="60" x2="112" y2="60" gradientUnits="userSpaceOnUse">
      <stop offset="0" stop-color="#0e7490"/>
      <stop offset="1" stop-color="#22d3ee"/>
    </linearGradient>
  </defs>
  <path d="M18 60C18 42.3 31.7 28 49.4 28C61.2 28 69.1 35.5 75.7 43.4C80.2 48.8 84.6 54 89.8 58.7C96.5 64.8 102 72.3 102 80.6C102 95 90.3 106 75.8 106C64 106 56.1 98.5 49.5 90.6C45 85.2 40.6 80 35.4 75.3C28.7 69.2 18 67.7 18 60Z" stroke="url(#fpA)" stroke-width="10" stroke-linecap="round" stroke-linejoin="round"/>
  <path d="M102 60C102 42.3 88.3 28 70.6 28C58.8 28 50.9 35.5 44.3 43.4C39.8 48.8 35.4 54 30.2 58.7C23.5 64.8 18 72.3 18 80.6C18 95 29.7 106 44.2 106C56 106 63.9 98.5 70.5 90.6C75 85.2 79.4 80 84.6 75.3C91.3 69.2 102 67.7 102 60Z" stroke="#0f766e" stroke-width="10" stroke-linecap="round" stroke-linejoin="round" opacity="0.9"/>
</svg>
